<svg data-name="Layer 1" xmlns="http://www.w3.org/2000/svg" viewBox="0 0 232 232"><path fill="#c3e7ed" d="M0 0h232v232H0z"/><path d="M34.049 7h163.9A27.05 27.05 0 0 1 225 34.05v163.9A27.049 27.049 0 0 1 197.951 225H34.049A27.049 27.049 0 0 1 7 197.951V34.049A27.049 27.049 0 0 1 34.049 7z" fill="#fff"/><circle cx="116" cy="116" r="24" fill="#444"/><path d="M116 130.4a24.008 24.008 0 0 0 23.519-19.2 24 24 0 1 1-47.038 0A24.008 24.008 0 0 0 116 130.4z" fill="#333"/><path d="M101.5 106.546a34.787 34.787 0 0 1 29 0c-.033-.52-3.543-9.029-14.5-9.666-10.958.635-14.468 9.147-14.5 9.666z" fill="#666"/></svg>