<svg id="Layer_1" data-name="Layer 1" xmlns="http://www.w3.org/2000/svg" viewBox="0 0 232 232"><defs><style>.cls-3{fill:#444}.cls-4{fill:#333}.cls-5{fill:#666}</style></defs><path fill="#c3e7ed" d="M0 0h232v232H0z"/><path d="M34.049 7h163.9A27.05 27.05 0 0 1 225 34.05v163.9A27.049 27.049 0 0 1 197.951 225H34.049A27.049 27.049 0 0 1 7 197.951V34.049A27.049 27.049 0 0 1 34.049 7z" fill="#fff"/><circle class="cls-3" cx="186" cy="47.5" r="24"/><path class="cls-4" d="M186 61.9a24.007 24.007 0 0 0 23.519-19.2 24 24 0 1 1-47.038 0A24.007 24.007 0 0 0 186 61.9z"/><path class="cls-5" d="M171.5 38.046a34.787 34.787 0 0 1 29 0c-.033-.52-3.543-9.028-14.5-9.666-10.958.635-14.468 9.147-14.5 9.666z"/><circle class="cls-3" cx="46" cy="184.5" r="24"/><path class="cls-4" d="M46 198.9a24.007 24.007 0 0 0 23.519-19.2 24 24 0 1 1-47.038 0A24.007 24.007 0 0 0 46 198.9z"/><path class="cls-5" d="M31.5 175.046a34.787 34.787 0 0 1 29 0c-.033-.52-3.543-9.028-14.5-9.666-10.958.635-14.468 9.147-14.5 9.666z"/><circle class="cls-3" cx="116" cy="116" r="24"/><path class="cls-4" d="M116 130.4a24.007 24.007 0 0 0 23.519-19.2 24 24 0 1 1-47.038 0A24.007 24.007 0 0 0 116 130.4z"/><path class="cls-5" d="M101.5 106.546a34.787 34.787 0 0 1 29 0c-.033-.52-3.543-9.028-14.5-9.666-10.958.635-14.468 9.147-14.5 9.666z"/><circle class="cls-3" cx="46" cy="47.5" r="24"/><path class="cls-4" d="M46 61.9a24.007 24.007 0 0 1-23.519-19.2 24 24 0 1 0 47.038 0A24.007 24.007 0 0 1 46 61.9z"/><path class="cls-5" d="M60.5 38.046a34.787 34.787 0 0 0-29 0c.033-.52 3.543-9.028 14.5-9.666 10.958.635 14.468 9.147 14.5 9.666z"/><circle class="cls-3" cx="186" cy="184.5" r="24"/><path class="cls-4" d="M186 198.9a24.007 24.007 0 0 1-23.519-19.2 24 24 0 1 0 47.038 0A24.007 24.007 0 0 1 186 198.9z"/><path class="cls-5" d="M200.5 175.046a34.787 34.787 0 0 0-29 0c.033-.52 3.543-9.028 14.5-9.666 10.958.635 14.468 9.147 14.5 9.666z"/></svg>