<svg xmlns="http://www.w3.org/2000/svg" xml:space="preserve" width="200" height="200"><path fill="#672900" stroke="#de9922" stroke-width="8" d="m24 56 76-44 76 44v88l-76 44-76-44z"/><path d="m138.3 62.2 15.6 9.9s-.4 5.6-1 8.4c-1 4.8-2.4 9.6-4.2 14.1-1.6 3.8-5.7 11-5.7 11l-9.7-11.4 3.4-4.8c1.1-1.8 2.5-3.5 3.3-5.5 1-2.5 1.9-8 1.9-8l-6.7-3.3zm-11 34.2 22.2 26.2s2 1.8 2.3 3c.5 1.2.6 2.5.2 3.7-.4 1-2 2.5-2 2.5l-20 14.9-3.8.4-1.5-1.3-.3-2 6.2-8.2 5.7-7-.7-2.7-15.1-19z" style="fill:#fdd868;stroke:#fdd868;stroke-width:1px;stroke-linecap:butt;stroke-linejoin:miter;stroke-opacity:1;fill-opacity:1"/><path d="M100 37.7 64 59.4S70.5 85 76.2 96.7a156.3 156.3 0 0 0 20.4 30c3.2 4.1 10.9 11.2 10.9 11.2l-7.7 8.3-9.8-8.9 6.6-5.3-8.4-8.5-4.5 5.2-3.1-1.8-1.1-2.4-1.3-4.1L68 128s6.2 10 9.7 14.8c3 4 5.9 8.2 9.4 11.7 4 3.9 13 10.1 13 10.1s9-7.8 13-12.3a128 128 0 0 0 9.1-11.8c3.3-4.7 9.2-14.3 9.2-14.3l-6-7.3-7.8 9.4s-14-10.8-19.4-17.6a91.3 91.3 0 0 1-13.3-24 148 148 0 0 1-4.7-20.8L100 52.5l18.4 13.4s-2.4 12-4.4 17.7a71.8 71.8 0 0 1-5.7 12.7 99.6 99.6 0 0 1-6.7 9.2l7.4 11.2s7.8-10.5 11-16.3c3.7-6.9 7-14 9.2-21.6 2-6.4 3.8-19.8 3.8-19.8z" style="fill:#fdd868;stroke:#fdd868;stroke-width:1px;stroke-linecap:butt;stroke-linejoin:miter;stroke-opacity:1;fill-opacity:1"/><path d="m87.2 80.3 12.7-13L112 80.6l-6 8-6-6.7-6.3 6.8zM60.5 62.2 45 72s.3 5.7 1 8.5a75 75 0 0 0 4.1 14c1.6 3.9 5.8 11 5.8 11L65.6 94l-3.4-4.7c-1.2-1.8-2.5-3.5-3.3-5.5-1-2.6-2-8-2-8l6.8-3.4-3.2-10.3zm11 34.1-22.2 26.3s-1.9 1.8-2.3 3a5.7 5.7 0 0 0-.1 3.6c.3 1 2 2.5 2 2.5l19.8 14.9 3.8.4 1.6-1.2.2-2-6.1-8.3-5.8-7 .7-2.7 15.2-19-6.7-10.5z" style="fill:#fdd868;stroke:#fdd868;stroke-width:1px;stroke-linecap:butt;stroke-linejoin:miter;stroke-opacity:1;fill-opacity:1"/></svg>