<svg xmlns="http://www.w3.org/2000/svg" xml:space="preserve" width="200" height="200"><path fill="#2e002b" stroke="#64296b" stroke-width="8" d="m24 56 76-44 76 44v88l-76 44-76-44z"/><path d="M100.5 36.9a36 36 0 0 0-10.8 2.4 67 67 0 0 0-19.3 10.5c-1.3 1-2.4 2.4-3.5 3.6-2 2-4.1 4-5.8 6.2-.8 1.2-2.1 3.9-2.1 3.9l-1.9 6.9L46.6 62s-1.5 10.7-1.5 16.1c0 5.2-.4 10.6 1.4 15.4 1.2 3.3 4 5.7 6 8.6l2.3 3.5 1.6 3.8-7-3.3-7.9-6.5s4 10.3 7.3 14.5a32 32 0 0 0 11.5 9.9c4.8 2.2 10.4 1.8 15.7 2.1 3.4.2 10.3-.1 10.3-.1l-.8 8.9s8.2-2 11.5-4.3a21 21 0 0 0 8.1-9.8c1.4-2 .2-7.5.5-7.5 0 0 9.5-.7 12.1 2.5 2.8 3.5 2 9.4 0 13.4-1.6 3-8.3 6-8.3 6l-1.3 2.9 9-.8s-7.3 4.5-11.4 5.7a73 73 0 0 1-27.2.4c-5.3-1-10.7-2.4-15.4-5-2.9-1.6-5-4.1-7.6-6-1.7-1.4-3.5-2.5-5.2-3.8-3-2.6-8.6-8.5-8.6-8.5s1.7 7.2 3.5 10.4a36 36 0 0 0 7.5 8.1 67 67 0 0 0 18.7 11.5c1.6.6 3.3.9 5 1.3 2.7.6 5.4 1.5 8.2 1.8 1.5.2 4.4 0 4.4 0l7-1.9-2 13.3s10-4 14.6-6.8c4.5-2.6 9.4-5 12.7-8.9 2.2-2.6 2.9-6.3 4.4-9.5l2-3.7 2.4-3.3.7 7.7-1.7 10.1s6.9-8.5 9-13.5a32 32 0 0 0 2.7-15c-.5-5.2-3.7-9.9-6-14.6a132 132 0 0 0-5.3-8.8l8.1-3.8s-5.7-6.2-9.4-7.9a21 21 0 0 0-12.6-2c-2.7-.3-6.9 4-7 3.5 0 0-5.4-8-4-11.8 1.6-4.2 7.2-6.5 11.7-6.7 3.4-.1 9.3 4.2 9.3 4.2l3.2-.3-5.2-7.5s7.5 4.1 10.6 7a73 73 0 0 1 14 23.3 53.8 53.8 0 0 1 3.3 16c.1 3.3-1 6.4-1.4 9.6-.3 2.1-.3 4.3-.7 6.4-.7 4-3 11.7-3 11.7s5.4-5 7.2-8.3a36 36 0 0 0 3.3-10.5 66.9 66.9 0 0 0 .6-22c-.3-1.7-.9-3.2-1.4-4.8-.8-2.8-1.3-5.6-2.5-8.1-.6-1.4-2.3-3.8-2.3-3.8l-5-5 12.5-5s-8.5-6.6-13.2-9.4c-4.5-2.5-9-5.6-14-6.5-3.5-.6-7 .7-10.5 1l-4.1.1-4.1-.4 6.3-4.5 9.6-3.5s-10.9-1.8-16.2-1a32 32 0 0 0-14.3 5c-4.3 3.1-6.8 8.2-9.7 12.6-1.9 2.8-5 9-5 9l-7.3-5.2s-2.5 8-2.1 12.1a21 21 0 0 0 4.5 12c1 1.5 7.9 4.1 6.6 4 0 0-4.2 8.5-8.3 9.2-4.4.7-9.2-3-11.6-6.8-1.9-2.8-1-10-1-10l-1.9-2.7-3.9 8.3s-.2-8.6.8-12.8a73 73 0 0 1 13.3-23.8c3.5-4 7.4-8 12-10.8 2.8-1.7 6-2.3 9-3.5 2-.9 4-2 6-2.6 3.7-1.4 11.5-3.3 11.5-3.3s-7-2.2-10.7-2.1z" style="fill:#aa84bd;stroke:#aa84bd;stroke-width:1px;stroke-linecap:butt;stroke-linejoin:miter;stroke-opacity:1;fill-opacity:1"/></svg>