<svg xmlns="http://www.w3.org/2000/svg" xml:space="preserve" width="200" height="200"><path fill="#003f11" stroke="#289345" stroke-width="8" d="m24 56 76-44 76 44v88l-76 44-76-44z"/><path d="M99.9 33.7s-2.5 8.7-5.5 11.8c-3.6 3.8-14 7.2-14 7.2s10 4.1 13.3 8.2a56 56 0 0 1 6.3 19.4s1.6-13.9 5.5-19.4c2.7-3.8 11.6-8 11.6-8s-8.3-4.2-11.4-7.5C103 42 100 33.7 100 33.7z" style="display:inline;fill:#82bf71;fill-opacity:1;stroke:#83bf73;stroke-width:1px;stroke-linecap:butt;stroke-linejoin:miter;stroke-opacity:1"/><path d="m112.6 68.6 11.9-13.4s11.5 7.5 16.8 11.9c4.3 3.6 9.4 7 12.1 11.9 1.8 3.1 2.5 10.6 2.5 10.6s-6.1-6.5-9.4-9.5c-3.8-3.4-7.1-7.7-11.8-9.6-6.9-2.8-22.1-2-22.1-2z" style="fill:#83c072;stroke:#83c072;stroke-width:1px;stroke-linecap:butt;stroke-linejoin:miter;stroke-opacity:1;fill-opacity:1"/><path d="M134.2 105.2s2.2-7.1 2.4-10.8a17 17 0 0 0-.8-6.8c-1.2-3.1-5.6-8.2-5.6-8.2s4-.4 5.9.4c3.2 1.5 5.2 4.9 7.6 7.5 4.4 4.7 12.5 14.5 12.5 14.5l-6 3.5-8.1 1zm-19.7-2.6s5.1 10.6 9 14.9a40.1 40.1 0 0 0 11.9 9 92 92 0 0 0 18.2 5V114s-7.5 1.8-11.2 1.4c-3.8-.4-7.2-2-10.7-3.5-2.8-1.2-5.4-2.9-8-4.3a2101.5 2101.5 0 0 1-9.2-4.9z" style="fill:#83c072;stroke:#83c072;stroke-width:1px;stroke-linecap:butt;stroke-linejoin:miter;stroke-opacity:1;fill-opacity:1"/><path d="m102.7 164 44.2-26.8s-9-1.5-12.9-3.6a60.7 60.7 0 0 1-16.6-14.3c-3.3-3.8-5.3-8.6-8.1-12.7-2.5-3.6-4.7-7.5-7.8-10.6-4.4-4.3-15-10.9-15-10.9l4.9 9c2.4 4.5 5.4 8.6 7.2 13.3a82 82 0 0 1 5.1 21.2c.7 7.2-.6 14.5-.8 21.8l-.2 13.7zm-5.8-27.8L94 163s-10-6.9-14.4-11c-5-4.5-10-9.2-13.2-15-2-3.8-4-8.2-3.5-12.4.2-2.3 1.8-4.3 3.3-6 1.4-1.8 5-4.4 5-4.4s-.4 4.4-.3 6.5c.1 2 .2 4 .9 6 .9 2.3 2.4 4.5 4.2 6.3 1.6 1.7 3.3 3.4 5.5 4.1 2.5 1 5.3.5 7.9.3 2.5-.1 7.4-1 7.4-1z" style="fill:#83c072;stroke:#83c072;stroke-width:1px;stroke-linecap:butt;stroke-linejoin:miter;stroke-opacity:1;fill-opacity:1"/><path d="M70.5 106.6s-7 5.5-9.3 9.3a26.7 26.7 0 0 0-4.5 14c.1 4.7 5 13 5 13l-15-8.7-5.6-5s-.5-5.4.3-7.9c1.1-3.3 3.6-6.1 6.1-8.4 3.5-3.2 7.8-5.5 12.2-7.2 2-.7 4-1.5 6-1.2 1.5.2 4 2 4 2" style="fill:#83c072;stroke:#83c072;stroke-width:1px;stroke-linecap:butt;stroke-linejoin:miter;stroke-opacity:1;fill-opacity:1"/><path d="M89.6 114c-3.6-3.6-6.3-8.2-10.5-11.3-3.6-2.6-7.6-5.4-12-5.6-4.4-.1-8.5 2.6-12.3 4.7-3.7 2-10 7.6-10 7.6l-4 3-.5-20.5s7.2-6.9 11.5-9.4C55 80.6 62 80 62 80s4.3 1.3 6.2 2.8a163 163 0 0 1 7.6 6.4A89 89 0 0 1 88 101.7c2.1 2.7 4.8 5.6 5.7 9 .7 2.4.3 7.5.3 7.5l-4.4-4.1z" style="fill:#83c072;stroke:#83c072;stroke-width:1px;stroke-linecap:butt;stroke-linejoin:miter;stroke-opacity:1;fill-opacity:1"/></svg>