<svg xmlns="http://www.w3.org/2000/svg" fill-rule="evenodd" stroke-linejoin="round" stroke-miterlimit="2" clip-rule="evenodd" viewBox="0 0 128 112">
<g fill="#000"><path d="m 63.6 16.5 m 0 5.2 l 29.4 17 v 34 L 63.6 89.5 l -29.3 -17 v -34 l 29.3 -16.9 z" /></g>
<g fill="#d4b889"><path d="m63.6 16.5 34 19.6v39.1l-34 19.6-33.9-19.6V36.1l34-19.6zm0 5.2 29.4 17v34L63.6 89.5l-29.3-17v-34l29.3-16.9z"/><path d="M66.4 96.5 97 78.8a.6.6 0 0 1 .9.6c-.6 5.4-2.9 19.9-8.5 24.8-.9.7-1.7 1.6-2.8 2.1a55 55 0 0 1-23 5h-.3a55.7 55.7 0 0 1-50-32 1 1 0 0 1 1.4-1.3 82 82 0 0 0 33.4 11.4c.7 0 1.3.2 1.8.5l11.6 7s1 3.5 1.9 4.6c0 0 .5-2.2 3-5zM100 52.2a.6.6 0 0 1-.3-.5V39.4a.6.6 0 0 1 1-.5c5 2.9 16 15 14.1 38 0 .5 0 .8-.2 1.2A55.9 55.9 0 0 1 98 99.4a.8.8 0 0 1-1.2-1 54 54 0 0 0 3.6-22v-18a391 391 0 0 1 4.4-3.7c-.7-.2-3.2-1.4-4.8-2.5zM10 70.1c-.5-1.9-1-3.7-1.2-5.7-1.2-4-6.3-7.4-8.4-8.6a.5.5 0 0 1 0-1c5.5-2.3 7.7-6 8.1-6.7A76 76 0 0 0 27 75.8v.5c0 .4.1.7.4.8l15 7.7V86h-.1A61 61 0 0 1 9.9 70.1zM27.6 60v11.3c0 .3-.1.5-.4.6s-1.2-.3-1.4-.5c-1.7-1.8-4.4-5.3-9-12.2a36.1 36.1 0 0 1-6.5-19.3 55.8 55.8 0 0 1 40-38.3.5.5 0 0 1 .5.9 50.6 50.6 0 0 0-18 29.6L28 34.4a1 1 0 0 0-.4.8V52a20 20 0 0 1-5.3 2.5s4 3.2 5.2 5.5zm72.8-25a1 1 0 0 0-.5-.8L79.8 22.5a.3.3 0 0 1 .1-.6c20.6-1.1 30.1 5.8 33.5 9l.4.7c2.5 5 4.1 10.5 5 16.3 0 0 2 4.3 8.2 7a.5.5 0 0 1 0 .9c-2.1 1.2-7.2 4.5-8.4 8.6a1 1 0 0 1-1.9 0c0-1.8-.2-3.7-.4-5.8A36.9 36.9 0 0 0 100.4 35zM61.6 14.7 36.4 29a.3.3 0 0 1-.4-.3C39 13.7 52.5 4.4 55.8 2L58.5.3l.6-.1 4.5-.2h.4a55.6 55.6 0 0 1 46.6 25.8v.4a66.9 66.9 0 0 0-36.1-6.8l-8.2-4.7c-1.7-1.9-2.7-5.4-2.7-5.4-1.4 1.1-2 5.4-2 5.4z"/></g></svg>