<svg xmlns="http://www.w3.org/2000/svg" xml:space="preserve" width="200" height="200"><path fill="#580303" stroke="#c31d2b" stroke-width="8" d="m24 56 76-44 76 44v88l-76 44-76-44z"/><path d="m156.4 69.5-56.2-31.2-53.7 31.8s20.3-7.4 30.7-9.7c7.4-1.6 15-3 22.5-3 5.3 0 15.9 1.9 15.9 1.9s-8.4 16.6-13.8 24.2a130.4 130.4 0 0 1-16.1 18.3c-6.9 6.5-14.7 12-22.2 17.8-7 5.4-21.3 15.7-21.3 15.7.1 0 16.2-7 24.4-10.3 8.8-3.6 17.4-7.6 26.5-10.3 7.8-2.3 15.8-4 24-4.8 9.2-.9 27.8.2 27.8.2s-3.6 10-6.4 14.7c-3.8 6.5-8.7 12.3-13.8 17.9a350.8 350.8 0 0 1-23.7 21.7l54.3-30.5 1.2-64.3zM103 67.9s-13.4.2-20.1 1c-6.7.7-13.6 1.3-20 3.6-5.5 1.9-15.4 8.2-15.4 8.2s8.4-1 12.7-1a64.3 64.3 0 0 1 15.1 1.7s-5.4 10.3-9 14.8c-4 5.2-9.3 9.3-14 14l-8.9 8.5s18.7-9.5 27-15.7a139.4 139.4 0 0 0 32.7-35.1zm28.1 48.7s-13.2 1-19.7 2.4c-9.2 2-18.3 4.6-27 8.3-9.5 4.1-27.1 15.5-27.1 15.5l12-3.4c6.3-1.8 12.5-4.2 19-5.2 5.7-.8 17.3-.3 17.3-.3s-1.4 4.4-2.3 6.5a64.5 64.5 0 0 1-3.8 7.4c-2.2 3.7-7.2 10.5-7.2 10.5s10.4-5.4 14.8-9.2c5.2-4.4 9.2-10 13.2-15.5 4-5.4 10.8-17 10.8-17z" style="fill:#f36b76;fill-opacity:1;stroke:#f4717c;stroke-width:1px;stroke-linecap:butt;stroke-linejoin:miter;stroke-opacity:1"/></svg>