<svg xmlns="http://www.w3.org/2000/svg" xml:space="preserve" width="200" height="200"><path fill="#003a55" stroke="#0096c7" stroke-width="8" d="m24 56 76-44 76 44v88l-76 44-76-44z"/><path d="m117.6 144.4-17.8 20.4-15.7-20.4 9.3-2 3-2.6 7 .1 3.8 2.7zM82.2 56.2l17.9-20.4 15.6 20.4-9.3 2-3 2.6-7-.1-3.7-2.7z" style="fill:#54b9de;fill-opacity:1;stroke:#54b9de;stroke-width:1px;stroke-linecap:butt;stroke-linejoin:miter;stroke-opacity:1"/><path d="M129.6 59.1a40.6 40.6 0 0 0-1.3 0c-9.6.2-18.3 5.2-27.2 8.8-7.3 3-14.9 5.7-21.4 10-3 2-6.2 4-9.5 8.5-3 3.9-3.9 8.2-7.6 6.6-6.3-2.5-5.2-14.5-1.5-20.2 2.1-3.2 7.2-3.3 11-3.8 4.5-.6 9.7 3.5 13.6 1 1.5-.9 2.8-3.3 2-5-2.8-5.7-12-5.8-18.3-5.3-6.3.5-13.4 3.2-17 8.3-3.8 5.3-4.2 13-2.5 19.3 2.8 10.7 11.8 19 19.8 26.5 5.3 5 19.1 5 18.4 12.3-.3 3.7-6.6 3.8-10.2 4.4-4.3.7-9.2 1.3-12.9-1-2.9-1.8-4.6-5.4-5.3-8.7-.8-3.6 2.6-7.5 1.2-10.8-1-2.5-3.6-5.7-6.2-5-4.6 1-5.5 7.9-6.2 12.5-.9 5.6-1 12.3 2.3 17 3.3 4.5 9.7 6.4 15.2 7.5 5.4 1 11.2.3 16.5-1.1 6-1.6 11-5.5 16.6-8.2 7.6-3.9 11.6-4.3 18.5-9.6 2-1.6 8.8-5.2 10.5-7.9 2-3.1 2.3-7.1 5.4-7 2.3.1 3.5 3.4 4.2 5.6 1 3 1.2 6.5-.1 9.3-1.6 3.3-5 6-8.5 7.1-4.2 1.4-9-1.5-13.4-.8-2.2.3-4.9.5-6.3 2.3-1.2 1.6-1.5 4.2-.5 5.9 2.4 3.9 8.2 4.5 12.7 5.2 6.7 1 14.5 1.9 20.4-1.7a24.3 24.3 0 0 0 10.3-16.6c.9-5.6-1.5-11.5-4.2-16.4-3.5-6.3-10.1-10.2-14.9-15.6-3.4-3.9-5.9-8.7-9.8-12-3.5-3-11.9-2.1-12-6.7-.1-2.5 3.8-3.5 6.2-4.1a23.7 23.7 0 0 1 16.4 1c3 1.4 5.5 4.3 6.2 7.4.7 3.7-4 7.2-3 10.8 1 4 3.9 9.3 7.9 8.4 6.1-1.3 6.2-11.4 6.3-17.7 0-5.5-1.1-10.8-5-14.7a24 24 0 0 0-16.8-5.8zm-24.8 23 24 18.8-23.7 17.4v-9.2c0-1.7 2.9-2.6 3.9-4 1-1.5 2.4-3 2.4-4.7 0-1.9-1.5-3-2.7-4.4-1-1-3.3-1.3-3.8-2.7-.3-1-.1-11.3-.1-11.3zm-10.6 1.2v9.9c0 1.7-3 2-4 3.3-1.1 1.5-1.7 2.3-1.6 4 0 2 1 3.3 2.2 4.7 1 1 3.1 2 3.6 3.4.3 1 0 11 0 11l-24-19z" style="display:inline;fill:#54b9de;fill-opacity:1;stroke:#54b9de;stroke-width:1px;stroke-linecap:butt;stroke-linejoin:miter;stroke-opacity:1"/></svg>