<svg xmlns="http://www.w3.org/2000/svg" xml:space="preserve" width="200" height="200"><path fill="#313f47" stroke="#7d8c96" stroke-width="8" d="m24 56 76-44 76 44v88l-76 44-76-44z"/><path d="m94.8 34.3-20.6 14 .5 46.1-7.5 5.5-.8-46.2-20.8 13 .2 18.4 4.5 2V110l-8.5 4.2v17l58.5 35.5 58.5-35.5v-17l-8.5-4.2V87.2l4.5-2 .1-18.5-20.7-13-.9 46.2-7.5-5.4.6-46-20.7-14.1-.1 93.8 20.2-20.2-10 24 28.9-6.6-44.4 23.2-44.4-23.3 29 6.5L74.6 108 95 128.2z" style="fill:#b0c2cc;stroke:#b1c3cd;stroke-width:1px;stroke-linecap:butt;stroke-linejoin:miter;stroke-opacity:1;fill-opacity:1"/></svg>